<svg width="30" height="38" viewBox="0 0 30 38" fill="none" xmlns="http://www.w3.org/2000/svg">
<path d="M27.1032 38C26.6782 37.9997 26.2589 37.9035 25.8763 37.7184C25.4936 37.5333 25.1576 37.2641 24.8931 36.9309C24.0747 36.0455 17.7499 29.8212 13.8743 26.0263C13.6061 25.7672 13.3916 25.4576 13.2433 25.1151C13.0951 24.7728 13.0159 24.4043 13.0103 24.0311C13.0048 23.6579 13.0729 23.2872 13.2109 22.9405C13.349 22.5937 13.5541 22.2778 13.8145 22.0108C14.0748 21.744 14.3854 21.5312 14.7282 21.385C15.0709 21.2388 15.4392 21.1621 15.8117 21.159C16.1843 21.156 16.5537 21.2269 16.8988 21.3675C17.2439 21.5083 17.5577 21.716 17.8224 21.9788C17.85 22.0059 20.6413 24.7394 23.4118 27.4699L24.2798 28.3258V15.034C24.2798 9.8649 20.117 5.65952 14.9999 5.65952C9.88277 5.65952 5.71994 9.8649 5.71994 15.034V35.17C5.71994 35.9205 5.42237 36.6403 4.89271 37.171C4.36305 37.7016 3.64466 37.9997 2.89561 37.9997C2.14655 37.9997 1.42818 37.7016 0.898513 37.171C0.368851 36.6403 0.0712891 35.9205 0.0712891 35.17V15.034C0.0712891 6.74415 6.7682 0 14.9999 0C23.2314 0 29.9284 6.74415 29.9284 15.034V35.17C29.9281 35.9205 29.6304 36.6403 29.1006 37.1711C28.5708 37.7018 27.8523 37.9998 27.1032 38Z" fill="url(#paint0_linear_45_483)"/>
<path d="M15.0003 17.754C16.783 17.754 18.2281 16.3061 18.2281 14.52C18.2281 12.7339 16.783 11.2859 15.0003 11.2859C13.2176 11.2859 11.7725 12.7339 11.7725 14.52C11.7725 16.3061 13.2176 17.754 15.0003 17.754Z" fill="url(#paint1_linear_45_483)"/>
<defs>
<linearGradient id="paint0_linear_45_483" x1="14.9999" y1="0" x2="14.9999" y2="38" gradientUnits="userSpaceOnUse">
<stop stop-color="#0176DE"/>
<stop offset="1" stop-color="#0176DE" stop-opacity="0.59"/>
</linearGradient>
<linearGradient id="paint1_linear_45_483" x1="15.0003" y1="38.4457" x2="15.0003" y2="0.108986" gradientUnits="userSpaceOnUse">
<stop stop-color="#00C0F4"/>
<stop offset="1" stop-color="#12ECA0"/>
</linearGradient>
</defs>
</svg>
